<svg xmlns="http://www.w3.org/2000/svg" enable-background="new 0 0 60 60" viewBox="0 0 60 60"><path d="M44,27.5c-0.3547363,0-0.7047729,0.0199585-1.0501099,0.0561523L40.2298584,14.5H47.3125
	C48.5581055,14.5,49,15.4589844,49,16.2802734s-0.4418945,1.7807617-1.6875,1.7807617c-0.5522461,0-1,0.4477539-1,1s0.4477539,1,1,1
	c2.1367188,0,3.6875-1.5898438,3.6875-3.7807617C51,14.0898438,49.4492188,12.5,47.3125,12.5H39
	c-0.0358887,0-0.0662842,0.0167847-0.1011963,0.0204468c-0.03479,0.003479-0.0679321-0.0067139-0.1029053,0.0005493
	c-0.0330811,0.006897-0.0577393,0.0283203-0.0892944,0.038269c-0.0655518,0.0205078-0.125061,0.0459595-0.184082,0.0788574
	c-0.0561523,0.031189-0.1071167,0.0641479-0.1554565,0.1047974c-0.0491943,0.0410767-0.0909424,0.0852661-0.1314087,0.1349487
	c-0.0408936,0.0502319-0.0758667,0.1005859-0.1063843,0.1577148c-0.0296021,0.0551758-0.0512695,0.1112061-0.0701904,0.171936
	c-0.0203857,0.0649414-0.0332642,0.1289063-0.039978,0.1978149C38.0158691,13.4380493,38,13.4664307,38,13.5
	c0,0.0357056,0.0166626,0.065918,0.0203247,0.100708c0.00354,0.0349731-0.0066528,0.0681763,0.0006714,0.1033936L39.4368286,20.5
	H23.9303589l-1.8201294-4H25c0.5522461,0,1-0.4477539,1-1s-0.4477539-1-1-1h-4.4696045c-0.0008545,0-0.0016479,0-0.0025024,0H17
	c-0.5522461,0-1,0.4477539-1,1s0.4477539,1,1,1h2.9130859l2.2749023,4.9995117L19.210144,28.038208
	C18.2009888,27.6948242,17.1238403,27.5,16,27.5c-5.5141602,0-10,4.4858398-10,10s4.4858398,10,10,10
	c5.1766357,0,9.4459229-3.9536743,9.9493408-9H30c0.0114136,0,0.0221558-0.0037842,0.0335083-0.0041504
	c0.0700684-0.0024414,0.1398926-0.0090332,0.2077637-0.0258789c0.0367432-0.0091553,0.0701294-0.0266724,0.1054077-0.0397949
	c0.0408936-0.0151978,0.0829468-0.0266724,0.1217041-0.0471802c0.0360718-0.019104,0.0669556-0.0461426,0.1004639-0.0695801
	c0.0334473-0.0233765,0.0691528-0.0427246,0.0999146-0.0704346c0.0460205-0.0414429,0.0845947-0.0913086,0.1226807-0.1414795
	c0.0126953-0.0166626,0.0288086-0.0291748,0.0405884-0.046814l9.3424683-14.013855l0.8173218,3.9233398
	C36.9434814,29.2441406,34,33.0338745,34,37.5c0,5.5141602,4.4858398,10,10,10s10-4.4858398,10-10S49.5141602,27.5,44,27.5z
	 M16,45.5c-4.4111328,0-8-3.5888672-8-8s3.5888672-8,8-8c0.8283691,0,1.6276855,0.12677,2.3797607,0.3615723l-3.289917,7.223877
	c-0.1411133,0.3095703-0.1147461,0.6694336,0.0693359,0.9555664S15.659668,38.5,16,38.5h7.930542
	C23.4359131,42.4399414,20.0717773,45.5,16,45.5z M20.1951904,30.7011719
	C22.2045898,31.9457397,23.6229248,34.0496216,23.930542,36.5h-6.3763428L20.1951904,30.7011719z M25.9493408,36.5
	c-0.3250122-3.2580566-2.2247925-6.0523682-4.9204102-7.6294556l2.2235107-4.8822632L28.496582,36.5H25.9493408z
	 M30.2018433,35.3944702L24.7965698,22.5h14.0012817L30.2018433,35.3944702z M44,45.5c-4.4111328,0-8-3.5888672-8-8
	c0-3.5014648,2.2648315-6.477478,5.4036865-7.559021l1.6173096,7.7631226C43.1191406,38.1757813,43.5351563,38.5,43.9990234,38.5
	c0.0673828,0,0.1362305-0.0068359,0.2050781-0.0209961c0.5405273-0.112793,0.8876953-0.6420898,0.7749023-1.1831055
	l-1.6174316-7.7635498C43.5728149,29.515564,43.7844849,29.5,44,29.5c4.4111328,0,8,3.5888672,8,8S48.4111328,45.5,44,45.5z"/></svg>