<svg xmlns="http://www.w3.org/2000/svg" width="32" height="32" enable-background="new 0 0 32 32" viewBox="0 0 32 32"><path fill="#263238" d="M25 27H8c-.133 0-.26-.053-.354-.146l-1.5-1.5C6.053 25.26 6 25.133 6 25V9.5C6 9.223 6.224 9 6.5 9S7 9.223 7 9.5v15.293L8.207 26h16.586L26 24.793V8.207L24.793 7H8.207L7.291 7.915c-.195.195-.512.195-.707 0-.195-.194-.195-.511 0-.706l1.063-1.063C7.74 6.053 7.867 6 8 6h17c.133 0 .26.053.354.146l1.5 1.5C26.947 7.74 27 7.867 27 8v17c0 .133-.053.26-.146.354l-1.5 1.5C25.26 26.947 25.133 27 25 27zM4.5 24h-2C2.224 24 2 24.224 2 24.5S2.224 25 2.5 25h2C4.776 25 5 24.776 5 24.5S4.776 24 4.5 24zM4.5 22h-2C2.224 22 2 22.224 2 22.5S2.224 23 2.5 23h2C4.776 23 5 22.776 5 22.5S4.776 22 4.5 22zM4.5 20h-2C2.224 20 2 20.224 2 20.5S2.224 21 2.5 21h2C4.776 21 5 20.776 5 20.5S4.776 20 4.5 20zM4.5 18h-2C2.224 18 2 18.224 2 18.5S2.224 19 2.5 19h2C4.776 19 5 18.776 5 18.5S4.776 18 4.5 18zM4.5 16h-2C2.224 16 2 16.224 2 16.5S2.224 17 2.5 17h2C4.776 17 5 16.776 5 16.5S4.776 16 4.5 16zM4.5 14h-2C2.224 14 2 14.224 2 14.5S2.224 15 2.5 15h2C4.776 15 5 14.776 5 14.5S4.776 14 4.5 14zM4.5 12h-2C2.224 12 2 12.224 2 12.5S2.224 13 2.5 13h2C4.776 13 5 12.776 5 12.5S4.776 12 4.5 12zM4.5 10h-2C2.224 10 2 10.224 2 10.5S2.224 11 2.5 11h2C4.776 11 5 10.776 5 10.5S4.776 10 4.5 10zM4.5 8h-2C2.224 8 2 8.224 2 8.5S2.224 9 2.5 9h2C4.776 9 5 8.776 5 8.5S4.776 8 4.5 8zM30.5 24h-2c-.276 0-.5.224-.5.5s.224.5.5.5h2c.276 0 .5-.224.5-.5S30.776 24 30.5 24zM30.5 22h-2c-.276 0-.5.224-.5.5s.224.5.5.5h2c.276 0 .5-.224.5-.5S30.776 22 30.5 22zM30.5 20h-2c-.276 0-.5.224-.5.5s.224.5.5.5h2c.276 0 .5-.224.5-.5S30.776 20 30.5 20zM30.5 18h-2c-.276 0-.5.224-.5.5s.224.5.5.5h2c.276 0 .5-.224.5-.5S30.776 18 30.5 18zM30.5 16h-2c-.276 0-.5.224-.5.5s.224.5.5.5h2c.276 0 .5-.224.5-.5S30.776 16 30.5 16zM30.5 14h-2c-.276 0-.5.224-.5.5s.224.5.5.5h2c.276 0 .5-.224.5-.5S30.776 14 30.5 14zM30.5 12h-2c-.276 0-.5.224-.5.5s.224.5.5.5h2c.276 0 .5-.224.5-.5S30.776 12 30.5 12zM30.5 10h-2c-.276 0-.5.224-.5.5s.224.5.5.5h2c.276 0 .5-.224.5-.5S30.776 10 30.5 10zM28.5 9h2C30.776 9 31 8.776 31 8.5S30.776 8 30.5 8h-2C28.224 8 28 8.224 28 8.5S28.224 9 28.5 9zM24.5 28c-.276 0-.5.224-.5.5v2c0 .276.224.5.5.5s.5-.224.5-.5v-2C25 28.224 24.776 28 24.5 28zM22.5 28c-.276 0-.5.224-.5.5v2c0 .276.224.5.5.5s.5-.224.5-.5v-2C23 28.224 22.776 28 22.5 28zM20.5 28c-.276 0-.5.224-.5.5v2c0 .276.224.5.5.5s.5-.224.5-.5v-2C21 28.224 20.776 28 20.5 28zM18.5 28c-.276 0-.5.224-.5.5v2c0 .276.224.5.5.5s.5-.224.5-.5v-2C19 28.224 18.776 28 18.5 28zM16.5 28c-.276 0-.5.224-.5.5v2c0 .276.224.5.5.5s.5-.224.5-.5v-2C17 28.224 16.776 28 16.5 28zM14.5 28c-.276 0-.5.224-.5.5v2c0 .276.224.5.5.5s.5-.224.5-.5v-2C15 28.224 14.776 28 14.5 28zM12.5 28c-.276 0-.5.224-.5.5v2c0 .276.224.5.5.5s.5-.224.5-.5v-2C13 28.224 12.776 28 12.5 28zM10.5 28c-.276 0-.5.224-.5.5v2c0 .276.224.5.5.5s.5-.224.5-.5v-2C11 28.224 10.776 28 10.5 28zM8.5 28C8.224 28 8 28.224 8 28.5v2C8 30.776 8.224 31 8.5 31S9 30.776 9 30.5v-2C9 28.224 8.776 28 8.5 28zM24.5 2C24.224 2 24 2.224 24 2.5v2C24 4.776 24.224 5 24.5 5S25 4.776 25 4.5v-2C25 2.224 24.776 2 24.5 2zM22.5 2C22.224 2 22 2.224 22 2.5v2C22 4.776 22.224 5 22.5 5S23 4.776 23 4.5v-2C23 2.224 22.776 2 22.5 2zM20.5 2C20.224 2 20 2.224 20 2.5v2C20 4.776 20.224 5 20.5 5S21 4.776 21 4.5v-2C21 2.224 20.776 2 20.5 2zM18.5 2C18.224 2 18 2.224 18 2.5v2C18 4.776 18.224 5 18.5 5S19 4.776 19 4.5v-2C19 2.224 18.776 2 18.5 2zM16.5 2C16.224 2 16 2.224 16 2.5v2C16 4.776 16.224 5 16.5 5S17 4.776 17 4.5v-2C17 2.224 16.776 2 16.5 2zM14.5 2C14.224 2 14 2.224 14 2.5v2C14 4.776 14.224 5 14.5 5S15 4.776 15 4.5v-2C15 2.224 14.776 2 14.5 2zM12.5 2C12.224 2 12 2.224 12 2.5v2C12 4.776 12.224 5 12.5 5S13 4.776 13 4.5v-2C13 2.224 12.776 2 12.5 2zM10.5 2C10.224 2 10 2.224 10 2.5v2C10 4.776 10.224 5 10.5 5S11 4.776 11 4.5v-2C11 2.224 10.776 2 10.5 2zM8.5 2C8.224 2 8 2.224 8 2.5v2C8 4.776 8.224 5 8.5 5S9 4.776 9 4.5v-2C9 2.224 8.776 2 8.5 2z"/><circle cx="20.5" cy="20.5" r=".5" fill="#263238"/><circle cx="18.5" cy="20.5" r=".5" fill="#263238"/><circle cx="16.5" cy="20.5" r=".5" fill="#263238"/><circle cx="14.5" cy="20.5" r=".5" fill="#263238"/><circle cx="12.5" cy="20.5" r=".5" fill="#263238"/><circle cx="20.5" cy="18.5" r=".5" fill="#263238"/><circle cx="18.5" cy="18.5" r=".5" fill="#263238"/><circle cx="16.5" cy="18.5" r=".5" fill="#263238"/><circle cx="14.5" cy="18.5" r=".5" fill="#263238"/><circle cx="12.5" cy="18.5" r=".5" fill="#263238"/><g><circle cx="20.5" cy="16.5" r=".5" fill="#263238"/><circle cx="18.5" cy="16.5" r=".5" fill="#263238"/><circle cx="16.5" cy="16.5" r=".5" fill="#263238"/><circle cx="14.5" cy="16.5" r=".5" fill="#263238"/><circle cx="12.5" cy="16.5" r=".5" fill="#263238"/></g><g><circle cx="20.5" cy="14.5" r=".5" fill="#263238"/><circle cx="18.5" cy="14.5" r=".5" fill="#263238"/><circle cx="16.5" cy="14.5" r=".5" fill="#263238"/><circle cx="14.5" cy="14.5" r=".5" fill="#263238"/><circle cx="12.5" cy="14.5" r=".5" fill="#263238"/></g><g><circle cx="20.5" cy="12.5" r=".5" fill="#263238"/><circle cx="18.5" cy="12.5" r=".5" fill="#263238"/><circle cx="16.5" cy="12.5" r=".5" fill="#263238"/><circle cx="14.5" cy="12.5" r=".5" fill="#263238"/><circle cx="12.5" cy="12.5" r=".5" fill="#263238"/></g></svg>