<svg xmlns="http://www.w3.org/2000/svg" enable-background="new 0 0 64 64" viewBox="0 0 64 64"><path d="M64,36.55C64,36.55,64,36.55,64,36.55c0-0.01,0-0.02,0-0.02v-2.76c0-1.08-0.88-1.97-1.97-1.97h-6.19v-8.17
	c0-1.31-1.06-2.38-2.37-2.38h-6.74V13.9c0-1.08-0.88-1.97-1.97-1.97H1.96C0.88,11.93,0,12.81,0,13.9v27c0,1.08,0.88,1.97,1.96,1.97
	h17.39l-1.03,2.64h-0.25c-2.66,0-4.82,2.16-4.82,4.82v0.77c0,0.54,0.43,0.97,0.97,0.97h18.31c0.54,0,0.97-0.43,0.97-0.97v-0.77
	c0-2.66-2.16-4.82-4.82-4.82h-0.25l-1.03-2.64h8.12v2.75c0,1.31,1.06,2.38,2.37,2.38h14.09v2.11c0,1.08,0.88,1.97,1.96,1.97h8.1
	c1.08,0,1.97-0.88,1.97-1.97v-2.26c0,0,0-0.01,0-0.01c0,0,0-0.01,0-0.01V36.55z M53.47,23.2c0.24,0,0.43,0.2,0.43,0.44v1.47H37.44
	v-1.47c0-0.24,0.19-0.44,0.43-0.44H53.47z M27.75,47.44C27.75,47.44,27.75,47.44,27.75,47.44C27.75,47.44,27.75,47.44,27.75,47.44
	h0.92c1.52,0,2.78,1.19,2.88,2.69H15.19c0.1-1.5,1.35-2.69,2.88-2.69h0.91c0,0,0,0,0,0c0,0,0,0,0,0H27.75z M20.4,45.5l1.03-2.64
	h3.87l1.03,2.64H20.4z M35.5,40.92L1.94,40.89l0.03-27.02L44.8,13.9v7.36h-1.81v-4.78c0-0.54-0.43-0.97-0.97-0.97H4.72
	c-0.54,0-0.97,0.43-0.97,0.97V38.3c0,0.54,0.43,0.97,0.97,0.97H35.5V40.92z M35.5,23.64v13.69H5.69V17.44h35.35v3.81h-3.17
	C36.56,21.26,35.5,22.33,35.5,23.64z M51.96,46.06H37.87c-0.24,0-0.43-0.2-0.43-0.44v-0.92h14.53V46.06z M51.96,33.78v8.98H37.44
	v-15.7h16.47v4.76C52.83,31.83,51.96,32.7,51.96,33.78z M62.03,50.13L53.9,50.1l0-1.3h8.13L62.03,50.13z M62.04,46.86h-8.13
	l0.01-9.35h8.13L62.04,46.86z M62.06,35.57h-8.13l0-1.82h8.1c0.01,0,0.03,0.01,0.03,0.03L62.06,35.57z"/></svg>